name rise37.2698peak67.6939fall79.5734.mot
datacolumns 19
datarows 30
range 10.81829200000000 10.86662800000000
endheader
time	ground_force1_vx	ground_force1_vy	ground_force1_vz	ground_force1_px	ground_force1_py	ground_force1_pz	ground_force2_vx	ground_force2_vy	ground_force2_vz	ground_force2_px	ground_force2_py	ground_force2_pz	ground_torque1_x	ground_torque1_y	ground_torque1_z	ground_torque2_x	ground_torque2_y	ground_torque2_z	
10.81829200000000	18.09714700000000	691.80789300000004	42.22028800000000	0.25027000000000	0.00000000000000	0.10066400000000	0.00000000000000	0.00000000000000	0.00000000000000	0.00000000000000	0.00000000000000	0.00000000000000	0.00000000000000	16.64459100000000	0.00000000000000	0.00000000000000	0.00000000000000	0.00000000000000	
10.81996000000000	17.73150700000000	691.95535700000005	42.22857100000000	0.24973400000000	0.00000000000000	0.10055500000000	0.00000000000000	0.00000000000000	0.00000000000000	0.00000000000000	0.00000000000000	0.00000000000000	0.00000000000000	16.68180200000000	0.00000000000000	0.00000000000000	0.00000000000000	0.00000000000000	
10.82162300000000	17.35827600000000	692.17917100000000	42.24108400000000	0.24918400000000	0.00000000000000	0.10044700000000	0.00000000000000	0.00000000000000	0.00000000000000	0.00000000000000	0.00000000000000	0.00000000000000	0.00000000000000	16.72259000000000	0.00000000000000	0.00000000000000	0.00000000000000	0.00000000000000	
10.82329500000000	16.97710900000000	692.47835099999998	42.25748300000000	0.24861700000000	0.00000000000000	0.10034100000000	0.00000000000000	0.00000000000000	0.00000000000000	0.00000000000000	0.00000000000000	0.00000000000000	0.00000000000000	16.76674700000000	0.00000000000000	0.00000000000000	0.00000000000000	0.00000000000000	
10.82496400000000	16.58768200000000	692.85183600000005	42.27743900000000	0.24803200000000	0.00000000000000	0.10023700000000	0.00000000000000	0.00000000000000	0.00000000000000	0.00000000000000	0.00000000000000	0.00000000000000	0.00000000000000	16.81407400000000	0.00000000000000	0.00000000000000	0.00000000000000	0.00000000000000	
10.82662300000000	16.18969800000000	693.29849999999999	42.30063500000000	0.24742700000000	0.00000000000000	0.10013500000000	0.00000000000000	0.00000000000000	0.00000000000000	0.00000000000000	0.00000000000000	0.00000000000000	0.00000000000000	16.86437500000000	0.00000000000000	0.00000000000000	0.00000000000000	0.00000000000000	
10.82829600000000	15.78288400000000	693.81714699999998	42.32676600000000	0.24680000000000	0.00000000000000	0.10003400000000	0.00000000000000	0.00000000000000	0.00000000000000	0.00000000000000	0.00000000000000	0.00000000000000	0.00000000000000	16.91746500000000	0.00000000000000	0.00000000000000	0.00000000000000	0.00000000000000	
10.82996300000000	15.36699500000000	694.40652100000000	42.35554300000000	0.24615200000000	0.00000000000000	0.09993600000000	0.00000000000000	0.00000000000000	0.00000000000000	0.00000000000000	0.00000000000000	0.00000000000000	0.00000000000000	16.97316500000000	0.00000000000000	0.00000000000000	0.00000000000000	0.00000000000000	
10.83162500000000	14.94181600000000	695.06530799999996	42.38669600000000	0.24548000000000	0.00000000000000	0.09984000000000	0.00000000000000	0.00000000000000	0.00000000000000	0.00000000000000	0.00000000000000	0.00000000000000	0.00000000000000	17.03130500000000	0.00000000000000	0.00000000000000	0.00000000000000	0.00000000000000	
10.83329600000000	14.50716200000000	695.79213900000002	42.41996500000000	0.24478400000000	0.00000000000000	0.09974500000000	0.00000000000000	0.00000000000000	0.00000000000000	0.00000000000000	0.00000000000000	0.00000000000000	0.00000000000000	17.09172200000000	0.00000000000000	0.00000000000000	0.00000000000000	0.00000000000000	
10.83498000000000	14.06287900000000	696.58559400000001	42.45511300000000	0.24406400000000	0.00000000000000	0.09965300000000	0.00000000000000	0.00000000000000	0.00000000000000	0.00000000000000	0.00000000000000	0.00000000000000	0.00000000000000	17.15426400000000	0.00000000000000	0.00000000000000	0.00000000000000	0.00000000000000	
10.83662300000000	13.60884800000000	697.44420700000001	42.49191700000000	0.24331800000000	0.00000000000000	0.09956400000000	0.00000000000000	0.00000000000000	0.00000000000000	0.00000000000000	0.00000000000000	0.00000000000000	0.00000000000000	17.21878500000000	0.00000000000000	0.00000000000000	0.00000000000000	0.00000000000000	
10.83829800000000	13.14498400000000	698.36646699999994	42.53017400000000	0.24254700000000	0.00000000000000	0.09947600000000	0.00000000000000	0.00000000000000	0.00000000000000	0.00000000000000	0.00000000000000	0.00000000000000	0.00000000000000	17.28515200000000	0.00000000000000	0.00000000000000	0.00000000000000	0.00000000000000	
10.83998300000000	12.67123500000000	699.35082499999999	42.56969900000000	0.24175000000000	0.00000000000000	0.09939100000000	0.00000000000000	0.00000000000000	0.00000000000000	0.00000000000000	0.00000000000000	0.00000000000000	0.00000000000000	17.35323700000000	0.00000000000000	0.00000000000000	0.00000000000000	0.00000000000000	
10.84162900000000	12.18758700000000	700.39569300000005	42.61032400000000	0.24092800000000	0.00000000000000	0.09930900000000	0.00000000000000	0.00000000000000	0.00000000000000	0.00000000000000	0.00000000000000	0.00000000000000	0.00000000000000	17.42292300000000	0.00000000000000	0.00000000000000	0.00000000000000	0.00000000000000	
10.84329200000000	11.69406200000000	701.49945300000002	42.65190300000000	0.24008100000000	0.00000000000000	0.09922800000000	0.00000000000000	0.00000000000000	0.00000000000000	0.00000000000000	0.00000000000000	0.00000000000000	0.00000000000000	17.49410100000000	0.00000000000000	0.00000000000000	0.00000000000000	0.00000000000000	
10.84498100000000	11.19071900000000	702.66045599999995	42.69430700000000	0.23920800000000	0.00000000000000	0.09915000000000	0.00000000000000	0.00000000000000	0.00000000000000	0.00000000000000	0.00000000000000	0.00000000000000	0.00000000000000	17.56667000000000	0.00000000000000	0.00000000000000	0.00000000000000	0.00000000000000	
10.84662400000000	10.67765200000000	703.87702700000000	42.73742900000000	0.23831100000000	0.00000000000000	0.09907400000000	0.00000000000000	0.00000000000000	0.00000000000000	0.00000000000000	0.00000000000000	0.00000000000000	0.00000000000000	17.64053800000000	0.00000000000000	0.00000000000000	0.00000000000000	0.00000000000000	
10.84829800000000	10.15499600000000	705.14746800000000	42.78117700000000	0.23739100000000	0.00000000000000	0.09900000000000	0.00000000000000	0.00000000000000	0.00000000000000	0.00000000000000	0.00000000000000	0.00000000000000	0.00000000000000	17.71562100000000	0.00000000000000	0.00000000000000	0.00000000000000	0.00000000000000	
10.84997100000000	9.62291900000000	706.47006099999999	42.82548400000000	0.23644800000000	0.00000000000000	0.09892900000000	0.00000000000000	0.00000000000000	0.00000000000000	0.00000000000000	0.00000000000000	0.00000000000000	0.00000000000000	17.79184100000000	0.00000000000000	0.00000000000000	0.00000000000000	0.00000000000000	
10.85162400000000	9.08162800000000	707.84307200000001	42.87029800000000	0.23548200000000	0.00000000000000	0.09885900000000	0.00000000000000	0.00000000000000	0.00000000000000	0.00000000000000	0.00000000000000	0.00000000000000	0.00000000000000	17.86913000000000	0.00000000000000	0.00000000000000	0.00000000000000	0.00000000000000	
10.85329800000000	8.53136600000000	709.26475200000004	42.91558800000000	0.23449700000000	0.00000000000000	0.09879200000000	0.00000000000000	0.00000000000000	0.00000000000000	0.00000000000000	0.00000000000000	0.00000000000000	0.00000000000000	17.94742300000000	0.00000000000000	0.00000000000000	0.00000000000000	0.00000000000000	
10.85498300000000	7.97241100000000	710.73334199999999	42.96134200000000	0.23349100000000	0.00000000000000	0.09872700000000	0.00000000000000	0.00000000000000	0.00000000000000	0.00000000000000	0.00000000000000	0.00000000000000	0.00000000000000	18.02666300000000	0.00000000000000	0.00000000000000	0.00000000000000	0.00000000000000	
10.85662600000000	7.40507800000000	712.24707100000001	43.00756700000000	0.23246700000000	0.00000000000000	0.09866400000000	0.00000000000000	0.00000000000000	0.00000000000000	0.00000000000000	0.00000000000000	0.00000000000000	0.00000000000000	18.10679900000000	0.00000000000000	0.00000000000000	0.00000000000000	0.00000000000000	
10.85829300000000	6.82971100000000	713.80416600000001	43.05428800000000	0.23142700000000	0.00000000000000	0.09860300000000	0.00000000000000	0.00000000000000	0.00000000000000	0.00000000000000	0.00000000000000	0.00000000000000	0.00000000000000	18.18778300000000	0.00000000000000	0.00000000000000	0.00000000000000	0.00000000000000	
10.85998100000000	6.24669200000000	715.40284799999995	43.10154900000000	0.23037000000000	0.00000000000000	0.09854400000000	0.00000000000000	0.00000000000000	0.00000000000000	0.00000000000000	0.00000000000000	0.00000000000000	0.00000000000000	18.26957400000000	0.00000000000000	0.00000000000000	0.00000000000000	0.00000000000000	
10.86163000000000	5.65643200000000	717.04133700000000	43.14941000000000	0.22930000000000	0.00000000000000	0.09848600000000	0.00000000000000	0.00000000000000	0.00000000000000	0.00000000000000	0.00000000000000	0.00000000000000	0.00000000000000	18.35213200000000	0.00000000000000	0.00000000000000	0.00000000000000	0.00000000000000	
10.86329400000000	5.05937000000000	718.71785199999999	43.19795200000000	0.22821800000000	0.00000000000000	0.09843100000000	0.00000000000000	0.00000000000000	0.00000000000000	0.00000000000000	0.00000000000000	0.00000000000000	0.00000000000000	18.43542200000000	0.00000000000000	0.00000000000000	0.00000000000000	0.00000000000000	
10.86498300000000	4.45597600000000	720.43061499999999	43.24726800000000	0.22712500000000	0.00000000000000	0.09837700000000	0.00000000000000	0.00000000000000	0.00000000000000	0.00000000000000	0.00000000000000	0.00000000000000	0.00000000000000	18.51941100000000	0.00000000000000	0.00000000000000	0.00000000000000	0.00000000000000	
10.86662800000000	3.84674500000000	722.17785100000003	43.29747200000000	0.22602200000000	0.00000000000000	0.09832400000000	0.00000000000000	0.00000000000000	0.00000000000000	0.00000000000000	0.00000000000000	0.00000000000000	0.00000000000000	18.60406800000000	0.00000000000000	0.00000000000000	0.00000000000000	0.00000000000000	
